<svg width="282" height="72" viewBox="0 0 282 72" fill="none" xmlns="http://www.w3.org/2000/svg">
<path d="M57.9797 62.5556C57.9797 64.2647 57.301 65.9039 56.0928 67.1125C54.8847 68.321 53.2461 69 51.5375 69H6.44219C4.73361 69 3.09502 68.321 1.88687 67.1125C0.678729 65.9039 0 64.2647 0 62.5556V17.4444C0 15.7353 0.678729 14.0961 1.88687 12.8875C3.09502 11.679 4.73361 11 6.44219 11H51.5375C53.2461 11 54.8847 11.679 56.0928 12.8875C57.301 14.0961 57.9797 15.7353 57.9797 17.4444V62.5556Z" fill="#FF6B1E"/>
<path d="M13.1646 25.7014C13.4642 23.9034 15.4113 21.8557 18.0591 21.8557C20.5554 21.8557 22.5042 23.6537 23.0534 25.4517L28.9464 45.2329H29.0462L34.936 25.4517C35.4852 23.6537 37.4324 21.8557 39.9303 21.8557C42.5748 21.8557 44.5236 23.9034 44.8248 25.7014L49.468 53.5768C49.5179 53.8765 49.5179 54.1762 49.5179 54.4243C49.5179 56.6235 47.9202 58.0203 45.9232 58.0203C43.3753 58.0203 42.3784 56.8716 42.0289 54.5242L39.0816 34.1936H38.9817L32.9889 55.1235C32.6394 56.3222 31.6924 58.0203 28.9947 58.0203C26.297 58.0203 25.35 56.3222 25.0005 55.1235L19.0077 34.1936H18.9078L15.9605 54.5258C15.6111 56.8732 14.6125 58.0219 12.0662 58.0219C10.0692 58.0219 8.4715 56.6251 8.4715 54.4259C8.4715 54.1778 8.4715 53.8765 8.52142 53.5785L13.1646 25.7014Z" fill="white"/>
<path d="M70.4525 58.56C68.8472 58.56 67.3538 58.336 65.9725 57.888C64.6285 57.4027 63.5458 56.5813 62.7245 55.424C61.9032 54.2667 61.4925 52.6613 61.4925 50.608C61.4925 48.7413 61.9592 47.192 62.8925 45.96C63.8258 44.728 65.0952 43.8133 66.7005 43.216C68.3058 42.6187 70.1165 42.32 72.1325 42.32C74.0738 42.32 75.5298 42.544 76.5005 42.992C77.4712 43.4027 78.3112 43.832 79.0205 44.28L79.4125 43.944C79.4125 42.824 79.3192 41.8907 79.1325 41.144C78.9458 40.3973 78.5165 39.8373 77.8445 39.464C77.1725 39.0533 76.1272 38.848 74.7085 38.848C73.3272 38.848 71.8525 38.9787 70.2845 39.24C68.7538 39.464 67.3352 39.7627 66.0285 40.136C64.7592 40.472 63.8072 40.808 63.1725 41.144V32.744C64.3298 32.3333 65.9725 31.96 68.1005 31.624C70.2658 31.2507 72.9165 31.064 76.0525 31.064C79.4125 31.064 82.0632 31.4933 84.0045 32.352C85.9832 33.1733 87.4018 34.3867 88.2605 35.992C89.1192 37.56 89.5485 39.4453 89.5485 41.648V49.096L90.6685 54.752L89.5485 58.056H79.9725V55.312L79.4125 55.032C79.1138 55.3307 78.5912 55.76 77.8445 56.32C77.0978 56.88 76.1085 57.4027 74.8765 57.888C73.6445 58.336 72.1698 58.56 70.4525 58.56ZM75.2125 51.224C76.2205 51.224 77.0792 51.1307 77.7885 50.944C78.5352 50.7573 79.0765 50.5893 79.4125 50.44V49.376C79.4125 48.8907 79.0578 48.424 78.3485 47.976C77.6765 47.528 76.6125 47.304 75.1565 47.304C73.1405 47.304 72.1325 48.0133 72.1325 49.432C72.1325 50.0293 72.3565 50.4773 72.8045 50.776C73.2525 51.0747 74.0552 51.224 75.2125 51.224ZM107.234 71.608C106.301 71.608 105.237 71.5707 104.042 71.496C102.848 71.4587 101.877 71.4027 101.13 71.328L94.2984 68.024L97.0984 60.744L105.89 63.6C110.856 63.6 113.338 61.528 113.338 57.384V56.32L112.778 56.04C112.256 56.5627 111.416 57.104 110.258 57.664C109.138 58.1867 107.365 58.448 104.938 58.448C103.184 58.448 101.485 58.0187 99.8424 57.16C98.1998 56.264 96.8558 54.8453 95.8104 52.904C94.8024 50.9627 94.2984 48.4427 94.2984 45.344C94.2984 41.872 94.8211 39.0907 95.8664 37C96.9118 34.872 98.2371 33.3227 99.8424 32.352C101.485 31.3813 103.184 30.896 104.938 30.896C106.88 30.896 108.466 31.176 109.698 31.736C110.968 32.296 111.808 32.8373 112.218 33.36V31.512H122.354L122.914 34.872L122.298 38.232L122.354 57.944C122.354 61.1547 121.72 63.768 120.45 65.784C119.218 67.8 117.464 69.2747 115.186 70.208C112.946 71.1413 110.296 71.608 107.234 71.608ZM109.138 50.552C109.81 50.552 110.426 50.4587 110.986 50.272C111.546 50.0853 111.957 49.9173 112.218 49.768V39.296C112.069 39.184 111.789 39.072 111.378 38.96C110.968 38.848 110.408 38.792 109.698 38.792C108.242 38.792 107.085 39.2587 106.226 40.192C105.368 41.1253 104.938 42.6373 104.938 44.728C104.938 46.7813 105.349 48.2747 106.17 49.208C106.992 50.104 107.981 50.552 109.138 50.552ZM135.804 58.56C134.199 58.56 132.705 58.336 131.324 57.888C129.98 57.4027 128.897 56.5813 128.076 55.424C127.255 54.2667 126.844 52.6613 126.844 50.608C126.844 48.7413 127.311 47.192 128.244 45.96C129.177 44.728 130.447 43.8133 132.052 43.216C133.657 42.6187 135.468 42.32 137.484 42.32C139.425 42.32 140.881 42.544 141.852 42.992C142.823 43.4027 143.663 43.832 144.372 44.28L144.764 43.944C144.764 42.824 144.671 41.8907 144.484 41.144C144.297 40.3973 143.868 39.8373 143.196 39.464C142.524 39.0533 141.479 38.848 140.06 38.848C138.679 38.848 137.204 38.9787 135.636 39.24C134.105 39.464 132.687 39.7627 131.38 40.136C130.111 40.472 129.159 40.808 128.524 41.144V32.744C129.681 32.3333 131.324 31.96 133.452 31.624C135.617 31.2507 138.268 31.064 141.404 31.064C144.764 31.064 147.415 31.4933 149.356 32.352C151.335 33.1733 152.753 34.3867 153.612 35.992C154.471 37.56 154.9 39.4453 154.9 41.648V49.096L156.02 54.752L154.9 58.056H145.324V55.312L144.764 55.032C144.465 55.3307 143.943 55.76 143.196 56.32C142.449 56.88 141.46 57.4027 140.228 57.888C138.996 58.336 137.521 58.56 135.804 58.56ZM140.564 51.224C141.572 51.224 142.431 51.1307 143.14 50.944C143.887 50.7573 144.428 50.5893 144.764 50.44V49.376C144.764 48.8907 144.409 48.424 143.7 47.976C143.028 47.528 141.964 47.304 140.508 47.304C138.492 47.304 137.484 48.0133 137.484 49.432C137.484 50.0293 137.708 50.4773 138.156 50.776C138.604 51.0747 139.407 51.224 140.564 51.224ZM160.49 34.984L162.226 31.568H170.57V33.976L171.074 34.312C171.485 33.9387 172.045 33.5093 172.754 33.024C173.501 32.5013 174.397 32.0347 175.442 31.624C176.487 31.2133 177.663 31.008 178.97 31.008C182.853 31.008 185.634 32.296 187.314 34.872C187.986 33.9387 188.994 33.0613 190.338 32.24C191.719 31.3813 193.623 30.952 196.05 30.952C199.41 30.952 201.93 31.904 203.61 33.808C205.29 35.712 206.13 38.3813 206.13 41.816V48.984L207.306 54.584L206.13 58H196.05V43.272C196.05 41.8533 195.733 40.7707 195.098 40.024C194.501 39.24 193.549 38.848 192.242 38.848C191.383 38.848 190.637 39.1653 190.002 39.8C189.367 40.4347 189.05 41.2373 189.05 42.208V58H178.97V43.328C178.97 41.9093 178.653 40.8267 178.018 40.08C177.421 39.296 176.469 38.904 175.162 38.904L171.69 39.968V58H161.61V41.144L160.49 34.984ZM253.266 58V41.144L252.146 34.984L253.882 31.568H262.226V33.976L262.73 34.312C263.141 33.9387 263.701 33.5093 264.41 33.024C265.157 32.5013 266.053 32.0347 267.098 31.624C268.144 31.2133 269.32 31.008 270.626 31.008C273.986 31.008 276.506 31.96 278.186 33.864C279.866 35.768 280.706 38.4373 280.706 41.872V48.984L281.882 54.584L280.706 58H270.626V43.328C270.626 41.9093 270.309 40.8267 269.674 40.08C269.077 39.296 268.125 38.904 266.818 38.904L263.346 39.968V58H253.266Z" fill="black"/>
<path d="M236.408 21.59C236.513 20.4108 238.272 20.3201 239.61 20.8009C239.689 20.8281 241.902 21.6807 241.272 22.1796C238.831 21.5083 236.338 23.8304 236.408 21.59ZM218.825 22.2158C221.51 21.4811 224.248 24.0299 224.17 21.5718C224.056 20.2838 222.123 20.1841 220.653 20.7011C220.565 20.7283 218.142 21.6535 218.825 22.2158ZM236.951 31.7942C236.181 31.7942 235.551 32.4472 235.551 33.2454C235.551 34.0436 236.181 34.6967 236.951 34.6967C237.72 34.6967 238.35 34.0436 238.35 33.2454C238.35 32.4472 237.72 31.7942 236.951 31.7942ZM222.98 31.7942C222.21 31.7942 221.58 32.4472 221.58 33.2454C221.58 34.0436 222.21 34.6967 222.98 34.6967C223.75 34.6967 224.38 34.0436 224.38 33.2454C224.38 32.4472 223.75 31.7942 222.98 31.7942ZM250.843 46.597C249.977 48.7739 247.282 47.5948 245.253 46.4882C244.072 52.7558 240.17 56.5926 234.204 57.7536C234.23 57.8353 234.029 57.7446 236.303 57.8443C239.243 57.9713 241.885 57.5632 244.824 57.1187C243.092 55.867 243.827 53.7536 243.967 53.6629C244.089 53.5813 245.253 53.8171 245.856 54.706C246.609 53.5722 248.341 53.3636 248.498 53.4724C248.638 53.5722 249.076 55.3681 247.895 56.6108C248.306 56.5291 248.612 56.4656 248.752 56.4203C248.979 56.3477 250.3 57.4452 249.023 57.6266C247.772 57.8353 247.046 58.0892 244.903 58.6062C240.887 59.5768 237.388 59.6766 234.606 59.7673L234.694 60.8194C235.026 62.4612 232.647 63.0235 232.279 61.3818C232.349 63.0054 229.908 63.3591 229.795 61.2911L229.751 61.7718C229.69 63.4408 227.266 63.3954 227.275 61.7174C226.619 62.9419 224.817 62.3342 224.966 60.9464L225.071 59.8217C221.86 59.9033 219.848 60.1029 219.664 60.1029C217.836 60.1029 217.836 57.2366 219.664 57.2366C219.874 57.2366 222.088 57.3545 225.193 57.4906C219.848 56.0847 216.121 52.5019 215.142 46.7694C212.955 47.9304 210.111 49.2002 209.175 46.8419C208.257 44.5381 211.056 42.978 215.019 40.1843C215.08 39.5856 215.159 38.9779 215.255 38.3883C213.996 36.6105 214.241 35.0958 213.847 32.9098C212.377 33.1275 211.817 32.0844 211.782 30.8146C211.809 30.1524 211.966 29.4631 211.992 29.4177C212.088 29.2545 212.876 29.2363 213.103 29.1819C213.628 26.3066 217.53 26.1705 221.055 26.0526C222.779 24.0753 225.009 22.2884 228.133 21.6716C226.794 19.912 227.835 18.0525 227.923 18.0072C228.071 17.9346 229.777 18.3972 230.223 20.1115C230.678 19.3133 231.824 19.0775 231.938 19.141C232.034 19.1954 232.498 20.5015 231.509 21.4902C235.035 21.8077 237.825 23.7306 239.908 26.0889C243.066 26.2249 246.189 26.624 246.652 29.1728C246.889 29.2272 247.667 29.2454 247.763 29.4087C247.79 29.454 247.947 30.1434 247.973 30.8055C247.93 32.0663 247.378 33.1094 245.909 32.9008C245.629 34.4699 245.673 35.8849 245.148 37.2273C245.358 38.2886 245.498 39.3861 245.568 40.529C248.804 42.8328 251.717 44.3839 250.843 46.597ZM227.153 31.7851C227.231 27.7941 223.837 27.9574 220.277 28.1297C218.378 28.2204 216.874 28.3021 216.296 29.3905C215.299 31.2862 216.812 37.8169 218.326 38.5697C219.183 38.9961 224.747 39.2863 225.876 37.9258C226.593 37.0731 227.188 33.445 227.153 31.7851ZM231.702 37.0731C231.326 35.9484 231.177 34.3429 230.363 34.1071C230.188 34.0618 229.576 34.0618 229.401 34.1071C228.526 34.3611 228.456 36.1117 227.914 37.4813C229.261 37.4813 229.602 38.3611 229.987 38.3611C230.363 38.3611 230.538 37.3362 231.702 37.0731ZM243.573 29.3905C242.996 28.293 241.403 28.2204 239.505 28.1297C235.988 27.9574 232.664 27.7851 232.743 31.7851C232.699 33.445 233.18 37.0731 233.898 37.9348C235.035 39.2863 240.599 39.0051 241.447 38.5788C242.829 37.8895 244.64 31.4223 243.573 29.3905Z" fill="#FF6B1E"/>
</svg>
